<svg xmlns="http://www.w3.org/2000/svg" viewBox="0 0 24 24" role="img" aria-label="pyLoad">
  <defs>
    <linearGradient id="pyload-bg" x1="0" y1="0" x2="1" y2="1">
      <stop offset="0%" stop-color="#2E5AFF"/>
      <stop offset="100%" stop-color="#00A8FF"/>
    </linearGradient>
    <linearGradient id="pyload-fg" x1="0" y1="0" x2="1" y2="1">
      <stop offset="0%" stop-color="#FFE873"/>
      <stop offset="100%" stop-color="#FFD43B"/>
    </linearGradient>
  </defs>
  <rect x="1" y="1" width="22" height="22" rx="5" fill="url(#pyload-bg)"/>
  <path fill="url(#pyload-fg)" d="M12 4.5a1 1 0 0 1 1 1V12l2.2-2.2a1 1 0 1 1 1.4 1.4l-3.9 3.9a1 1 0 0 1-1.4 0l-3.9-3.9a1 1 0 1 1 1.4-1.4L11 12V5.5a1 1 0 0 1 1-1Z"/>
  <rect x="5" y="16.5" width="14" height="3" rx="1.5" fill="#FFFFFF"/>
</svg>
